<svg width="72" height="44" viewBox="0 0 72 44" fill="none" xmlns="http://www.w3.org/2000/svg">
<path d="M5.17605 24.756C6.15021 24.7506 7.24613 24.9644 8.46383 25.3974L7.9524 27.3457C6.82129 26.9452 5.90126 26.7449 5.19229 26.7449C4.61862 26.7449 4.16671 26.8586 3.83658 27.0859C3.50645 27.3132 3.34139 27.6217 3.34139 28.0113C3.34139 28.4335 3.49292 28.769 3.79599 29.018C4.10448 29.2669 4.66462 29.4969 5.47641 29.708C6.67246 30.0165 7.52214 30.444 8.02546 30.9906C8.52877 31.5318 8.78043 32.2787 8.78043 33.2312C8.78043 34.3839 8.39077 35.2688 7.61144 35.8858C6.83753 36.4973 5.73078 36.8031 4.29119 36.8031C3.11679 36.8031 1.8585 36.5379 0.516332 36.0075L1.11706 34.1161C1.8585 34.3812 2.46465 34.568 2.93549 34.6762C3.40633 34.779 3.85282 34.8304 4.27495 34.8304C4.88651 34.8304 5.35735 34.7005 5.68748 34.4408C6.02302 34.1756 6.1908 33.8103 6.1908 33.3448C6.1908 33.0472 6.12044 32.7982 5.97973 32.598C5.83902 32.3978 5.60089 32.2192 5.26535 32.0622C4.9298 31.8998 4.44543 31.7402 3.81223 31.5832C2.75689 31.3289 1.98569 30.9338 1.49861 30.398C1.01153 29.8622 0.767989 29.156 0.767989 28.2792C0.767989 27.159 1.15224 26.293 1.92074 25.6815C2.69466 25.0645 3.77976 24.756 5.17605 24.756ZM15.908 36.3566C15.1557 36.6651 14.436 36.8193 13.7486 36.8193C11.8328 36.8193 10.8749 35.9047 10.8749 34.0755V29.7242H9.43799V27.9789H11.0372L11.5162 25.4866H13.3508V27.9789H15.7294V29.7242H13.3508V33.7264C13.3508 34.1702 13.432 34.4868 13.5944 34.6762C13.7622 34.8656 14.0463 34.9603 14.4468 34.9603C14.7877 34.9603 15.153 34.8927 15.5427 34.7574L15.908 36.3566ZM20.7139 27.8084C21.9424 27.8084 22.8841 28.1115 23.5389 28.7176C24.1938 29.3237 24.5212 30.2032 24.5212 31.3559V36.6895H22.4592L22.1751 35.6585C21.8179 36.0373 21.4147 36.3269 20.9655 36.5271C20.5217 36.7219 20.0455 36.8193 19.5367 36.8193C18.6384 36.8193 17.924 36.5866 17.3936 36.1212C16.8686 35.6558 16.6062 35.0307 16.6062 34.2459C16.6062 33.3367 16.9877 32.6278 17.7508 32.119C18.5193 31.6103 19.5909 31.3559 20.9655 31.3559H22.029V31.1368C21.9965 30.1301 21.4255 29.6268 20.3161 29.6268C19.9372 29.6268 19.4989 29.6836 19.001 29.7973C18.5031 29.9055 18.0539 30.0462 17.6534 30.2194L17.1257 28.539C17.6994 28.3063 18.3028 28.1277 18.936 28.0032C19.5692 27.8733 20.1618 27.8084 20.7139 27.8084ZM21.1766 32.7198C20.4676 32.7198 19.9156 32.8415 19.5205 33.0851C19.1308 33.3286 18.936 33.6669 18.936 34.0998C18.936 34.457 19.0443 34.7303 19.2607 34.9197C19.4772 35.1037 19.783 35.1957 20.1781 35.1957C20.5353 35.1957 20.8762 35.1173 21.2009 34.9603C21.5311 34.8034 21.8071 34.5923 22.029 34.3271V32.7198H21.1766ZM28.7912 36.6407L25.4953 27.9789H27.8739L28.8562 30.6578C29.0997 31.3235 29.4082 32.3707 29.7816 33.7995L30.0008 34.6275L30.2525 33.6614C30.5718 32.3409 30.8532 31.3262 31.0967 30.6172L32.0465 27.9789H34.4413L29.668 40.4968H27.3949L28.7912 36.6407ZM44.946 32.736C44.946 34.0295 44.5401 35.0361 43.7283 35.7559C42.9219 36.4757 41.7935 36.8356 40.3431 36.8356C38.8819 36.8356 37.7508 36.4784 36.9498 35.764C36.1542 35.0496 35.7565 34.0403 35.7565 32.736V24.9184H37.3476V32.736C37.3476 33.6236 37.5938 34.2838 38.0863 34.7168C38.5842 35.1443 39.3365 35.3581 40.3431 35.3581C42.351 35.3581 43.3549 34.4841 43.3549 32.736V24.9184H44.946V32.736ZM47.7873 24.9184H49.3865V36.6895H47.7873V24.9184ZM56.782 36.6895H54.7606L49.7356 30.3412L54.4278 24.9184H56.368L51.7164 30.3087L56.782 36.6895ZM68.3988 26.8505C68.3122 27.1481 68.1228 27.7678 67.8306 28.7095C67.5437 29.6512 67.3002 30.4034 67.1 30.9663L65.2085 36.3566H63.6092L61.7177 30.9663C61.4958 30.3331 61.2469 29.5619 60.9709 28.6527C60.6949 27.738 60.5109 27.1373 60.4189 26.8505L59.9237 30.9663L59.2093 36.6895H57.6912L59.1931 24.9184H61.1657L63.2926 31.1368C63.3576 31.3478 63.436 31.586 63.528 31.8511C63.6201 32.1163 63.7148 32.4059 63.8122 32.7198C64.0774 33.564 64.2776 34.1783 64.4129 34.5625C64.5482 34.1729 64.7457 33.5586 65.0055 32.7198C65.1029 32.4113 65.1976 32.1244 65.2897 31.8593C65.3817 31.5887 65.4601 31.3478 65.5251 31.1368L67.652 24.9184H69.6328L71.1265 36.6895H69.6165L68.9021 30.9663L68.3988 26.8505Z" fill="#2463EB"/>
<g clip-path="url(#clip0_2002_2348)">
<path d="M28.1016 8.44612L35.8815 1.63867L43.6614 8.44612" stroke="#2463EB" stroke-width="1.94498" stroke-linecap="round"/>
<path d="M33.3227 13.0771C34.2841 13.0771 35.0635 12.2978 35.0635 11.3364C35.0635 10.375 34.2841 9.5957 33.3227 9.5957C32.3614 9.5957 31.582 10.375 31.582 11.3364C31.582 12.2978 32.3614 13.0771 33.3227 13.0771Z" fill="#2463EB"/>
<path d="M38.2993 13.0771C39.2607 13.0771 40.04 12.2978 40.04 11.3364C40.04 10.375 39.2607 9.5957 38.2993 9.5957C37.3379 9.5957 36.5586 10.375 36.5586 11.3364C36.5586 12.2978 37.3379 13.0771 38.2993 13.0771Z" fill="#2463EB"/>
</g>
<defs>
<clipPath id="clip0_2002_2348">
<rect width="17.5969" height="12.7977" fill="white" transform="translate(27.0342 0.310547)"/>
</clipPath>
</defs>
</svg>
