<svg width="187.841797" height="31.052734" viewBox="0 0 187.842 31.0527" fill="none" xmlns="http://www.w3.org/2000/svg" xmlns:xlink="http://www.w3.org/1999/xlink">
	<desc>
			Created with Pixso.
	</desc>
	<defs/>
	<path id="Vector" d="M182.59 4.34C182.42 4.91 182.06 6.1 181.49 7.91C180.94 9.73 180.47 11.17 180.09 12.26L176.45 22.63L173.37 22.63L169.73 12.26C169.3 11.04 168.82 9.56 168.29 7.81C167.76 6.05 167.4 4.89 167.23 4.34L166.27 12.26L164.9 23.27L161.98 23.27L164.87 0.62L168.67 0.62L172.76 12.59C172.88 12.99 173.04 13.45 173.21 13.96C173.39 14.47 173.57 15.03 173.76 15.63C174.27 17.26 174.65 18.44 174.92 19.18C175.18 18.43 175.56 17.25 176.06 15.63C176.24 15.04 176.43 14.49 176.6 13.98C176.78 13.46 176.93 12.99 177.06 12.59L181.15 0.62L184.96 0.62L187.84 23.27L184.93 23.27L183.56 12.26L182.59 4.34Z" fill="#FFFFFF" fill-opacity="1.000000" fill-rule="nonzero"/>
	<path id="Vector" d="M142.92 0.62L145.99 0.62L145.99 23.27L142.92 23.27L142.92 0.62ZM160.23 23.27L156.34 23.27L146.67 11.06L155.7 0.62L159.43 0.62L150.48 10.99L160.23 23.27Z" fill="#FFFFFF" fill-opacity="1.000000" fill-rule="nonzero"/>
	<path id="Vector" d="M137.45 15.66C137.45 18.16 136.67 20.09 135.1 21.48C133.55 22.86 131.38 23.56 128.59 23.56C125.77 23.56 123.6 22.87 122.06 21.49C120.52 20.12 119.76 18.17 119.76 15.66L119.76 0.62L122.82 0.62L122.82 15.66C122.82 17.37 123.3 18.64 124.24 19.48C125.2 20.3 126.65 20.71 128.59 20.71C132.45 20.71 134.38 19.03 134.38 15.66L134.38 0.62L137.45 0.62L137.45 15.66Z" fill="#FFFFFF" fill-opacity="1.000000" fill-rule="nonzero"/>
	<path id="Vector" d="M105.33 23.43L98.82 6.33L103.52 6.33L105.46 11.62C105.94 12.94 106.55 15 107.28 17.83L107.72 19.46L108.21 17.55C108.84 14.95 109.4 12.94 109.88 11.54L111.76 6.33L116.48 6.33L107.06 31.05L102.57 31.05L105.33 23.43Z" fill="#FFFFFF" fill-opacity="1.000000" fill-rule="nonzero"/>
	<path id="Vector" d="M89.76 6.36C92.18 6.36 94.04 6.96 95.33 8.16C96.63 9.35 97.27 11.09 97.27 13.36L97.27 23.9L93.2 23.9L92.64 21.86C91.94 22.61 91.14 23.18 90.25 23.58C89.38 23.96 88.44 24.15 87.43 24.15C85.66 24.15 84.25 23.69 83.2 22.77C82.16 21.85 81.65 20.62 81.65 19.07C81.65 17.28 82.4 15.88 83.91 14.87C85.42 13.87 87.54 13.36 90.25 13.36L92.35 13.36L92.35 12.93C92.29 10.94 91.16 9.95 88.97 9.95C88.22 9.95 87.36 10.06 86.37 10.29C85.39 10.5 84.5 10.78 83.71 11.12L82.67 7.8C83.8 7.34 85 6.99 86.25 6.75C87.5 6.49 88.67 6.36 89.76 6.36ZM90.67 16.06C89.27 16.06 88.18 16.3 87.4 16.78C86.63 17.26 86.25 17.93 86.25 18.78C86.25 19.49 86.46 20.03 86.89 20.4C87.31 20.76 87.92 20.95 88.7 20.95C89.4 20.95 90.08 20.79 90.72 20.48C91.37 20.17 91.91 19.75 92.35 19.23L92.35 16.06L90.67 16.06Z" fill="#FFFFFF" fill-opacity="1.000000" fill-rule="nonzero"/>
	<path id="Vector" d="M80.27 23.24C78.78 23.84 77.36 24.15 76 24.15C72.22 24.15 70.33 22.34 70.33 18.73L70.33 10.14L67.49 10.14L67.49 6.69L70.65 6.69L71.6 1.77L75.22 1.77L75.22 6.69L79.91 6.69L79.91 10.14L75.22 10.14L75.22 18.04C75.22 18.92 75.38 19.54 75.7 19.92C76.03 20.29 76.59 20.48 77.38 20.48C78.06 20.48 78.78 20.34 79.55 20.08L80.27 23.24Z" fill="#FFFFFF" fill-opacity="1.000000" fill-rule="nonzero"/>
	<path id="Vector" d="M59.08 0.33C61 0.32 63.16 0.75 65.57 1.6L64.56 5.45C62.33 4.66 60.51 4.26 59.11 4.26C57.98 4.26 57.08 4.49 56.43 4.93C55.78 5.38 55.46 5.99 55.46 6.76C55.46 7.59 55.75 8.26 56.35 8.75C56.96 9.24 58.07 9.69 59.67 10.11C62.03 10.72 63.71 11.56 64.7 12.64C65.7 13.71 66.19 15.19 66.19 17.07C66.19 19.34 65.42 21.09 63.89 22.31C62.36 23.51 60.17 24.12 57.33 24.12C55.01 24.12 52.53 23.59 49.88 22.55L51.06 18.81C52.53 19.34 53.72 19.71 54.65 19.92C55.58 20.12 56.47 20.22 57.3 20.22C58.51 20.22 59.44 19.97 60.09 19.45C60.75 18.93 61.08 18.21 61.08 17.29C61.08 16.7 60.94 16.21 60.66 15.82C60.39 15.42 59.92 15.07 59.25 14.76C58.59 14.44 57.64 14.12 56.39 13.81C54.3 13.31 52.78 12.53 51.82 11.47C50.86 10.41 50.37 9.02 50.37 7.29C50.37 5.08 51.13 3.37 52.65 2.16C54.18 0.94 56.32 0.33 59.08 0.33Z" fill="#FFFFFF" fill-opacity="1.000000" fill-rule="nonzero"/>
	<path id="Vector" d="M2.82 17.18L18.18 3.74L33.54 17.18" stroke="#FFFFFF" stroke-opacity="1.000000" stroke-width="5.629198" stroke-linecap="round"/>
	<path id="Vector" d="M16.57 22.89C16.57 24.78 15.03 26.32 13.13 26.32C11.23 26.32 9.7 24.78 9.7 22.89C9.7 20.99 11.23 19.45 13.13 19.45C15.03 19.45 16.57 20.99 16.57 22.89Z" fill="#FFFFFF" fill-opacity="1.000000" fill-rule="evenodd"/>
	<path id="Vector" d="M26.39 22.89C26.39 24.78 24.85 26.32 22.96 26.32C21.06 26.32 19.52 24.78 19.52 22.89C19.52 20.99 21.06 19.45 22.96 19.45C24.85 19.45 26.39 20.99 26.39 22.89Z" fill="#FFFFFF" fill-opacity="1.000000" fill-rule="evenodd"/>
</svg>
