<svg width="19.558594" height="9.791016" viewBox="0 0 19.5586 9.79102" fill="none" xmlns="http://www.w3.org/2000/svg" xmlns:xlink="http://www.w3.org/1999/xlink">
	<desc>
			Created with Pixso.
	</desc>
	<defs/>
	<path id="Vector" d="M19.15 7.44C19.06 7.49 18.97 7.52 18.87 7.53C18.77 7.55 18.67 7.54 18.58 7.51C18.48 7.49 18.39 7.44 18.31 7.38C18.24 7.32 18.17 7.25 18.12 7.16L16.34 4.05C15.31 4.75 14.16 5.28 12.96 5.61L13.51 8.91C13.53 9.01 13.52 9.11 13.5 9.2C13.48 9.3 13.44 9.39 13.38 9.47C13.32 9.55 13.25 9.62 13.17 9.67C13.08 9.72 12.99 9.76 12.89 9.78C12.85 9.78 12.81 9.79 12.77 9.79C12.59 9.79 12.42 9.72 12.29 9.61C12.15 9.49 12.06 9.33 12.03 9.16L11.49 5.92C10.35 6.08 9.19 6.08 8.05 5.92L7.51 9.16C7.48 9.33 7.39 9.49 7.26 9.61C7.12 9.72 6.95 9.79 6.77 9.79C6.73 9.79 6.69 9.78 6.65 9.78C6.55 9.76 6.46 9.72 6.37 9.67C6.29 9.62 6.22 9.55 6.16 9.47C6.1 9.39 6.06 9.3 6.04 9.2C6.02 9.11 6.01 9.01 6.03 8.91L6.58 5.61C5.38 5.27 4.24 4.75 3.2 4.05L1.43 7.16C1.33 7.33 1.16 7.46 0.97 7.51C0.78 7.57 0.57 7.54 0.4 7.44C0.23 7.34 0.1 7.17 0.05 6.98C0 6.79 0.02 6.58 0.12 6.41L2 3.13C1.34 2.56 0.73 1.93 0.19 1.25C0.12 1.18 0.07 1.09 0.03 0.99C0 0.9 -0.01 0.79 0 0.69C0.01 0.59 0.04 0.49 0.08 0.4C0.13 0.31 0.2 0.23 0.28 0.17C0.36 0.11 0.45 0.06 0.54 0.03C0.64 0 0.75 0 0.85 0.01C0.95 0.02 1.04 0.06 1.13 0.11C1.22 0.16 1.29 0.23 1.35 0.32C2.91 2.24 5.63 4.54 9.77 4.54C13.91 4.54 16.63 2.24 18.19 0.32C18.25 0.23 18.32 0.16 18.41 0.11C18.5 0.05 18.6 0.02 18.7 0C18.8 -0.01 18.9 0 19 0.02C19.1 0.05 19.19 0.1 19.27 0.16C19.35 0.23 19.42 0.31 19.47 0.4C19.52 0.49 19.54 0.59 19.55 0.69C19.56 0.79 19.55 0.9 19.51 0.99C19.48 1.09 19.42 1.18 19.35 1.25C18.81 1.93 18.2 2.56 17.54 3.13L19.42 6.41C19.47 6.5 19.5 6.59 19.52 6.69C19.53 6.79 19.52 6.89 19.5 6.98C19.47 7.08 19.43 7.17 19.37 7.25C19.31 7.33 19.23 7.39 19.15 7.44Z" fill="#94A3B8" fill-opacity="1.000000" fill-rule="nonzero"/>
</svg>
